<?xml version="1.0" encoding="utf-8"?>
<!-- Generator: Adobe Illustrator 24.1.2, SVG Export Plug-In . SVG Version: 6.00 Build 0)  -->
<svg version="1.1" id="Warstwa_3" xmlns="http://www.w3.org/2000/svg" xmlns:xlink="http://www.w3.org/1999/xlink" x="0px" y="0px"
	 viewBox="0 0 430 430" style="enable-background:new 0 0 430 430;" xml:space="preserve">
<style type="text/css">
	.st0{fill:#5c94d0;}
	.st1{fill:#121331;}
	.st2{fill:none;}
	.st3{fill:#5c94d0;fill-opacity:0;}
</style>
<g>
	<path class="st1" d="M215,393.3c-1.16,0-2.32-0.32-3.34-0.96c-63.39-39.64-106.91-96.22-129.35-168.15
		C64.46,166.93,65.28,116.97,65.63,95.63c0.04-2.2,0.07-4.05,0.07-5.51c0-3.09,2.24-5.72,5.29-6.22
		c44.59-7.25,140.66-46.34,141.63-46.74c1.53-0.62,3.24-0.62,4.76,0c0.97,0.39,97.04,39.49,141.63,46.74
		c3.05,0.5,5.29,3.13,5.29,6.22c0,1.46,0.03,3.31,0.07,5.51c0.35,21.34,1.18,71.3-16.68,128.55
		c-22.44,71.94-65.96,128.51-129.35,168.15C217.32,392.98,216.16,393.3,215,393.3z M78.24,95.4c0,0.15,0,0.29-0.01,0.44
		C75.6,255.23,150.34,337.93,215,379.54c64.66-41.61,139.4-124.31,136.77-283.7c0-0.15,0-0.29-0.01-0.44
		C307.93,86.83,229.94,55.83,215,49.8C200.06,55.83,122.07,86.83,78.24,95.4z"/>
	<path class="st0" d="M187.91,266.41c-1.67,0-3.27-0.66-4.46-1.85l-45.14-45.14c-2.46-2.46-2.46-6.45,0-8.91
		c2.46-2.46,6.45-2.46,8.91,0l40.68,40.68L290.45,148.3c2.46-2.47,6.45-2.47,8.91-0.02c2.46,2.46,2.47,6.45,0.01,8.91L192.37,264.55
		C191.19,265.74,189.58,266.41,187.91,266.41C187.91,266.41,187.91,266.41,187.91,266.41z"/>
</g>
</svg>
