<?xml version="1.0" encoding="utf-8"?>
<!-- Generator: Adobe Illustrator 24.1.2, SVG Export Plug-In . SVG Version: 6.00 Build 0)  -->
<svg version="1.1" id="Warstwa_3" xmlns="http://www.w3.org/2000/svg" xmlns:xlink="http://www.w3.org/1999/xlink" x="0px" y="0px"
	 viewBox="0 0 430 430" style="enable-background:new 0 0 430 430;" xml:space="preserve">
<style type="text/css">
	.st0{fill:#5c94d0;}
	.st1{fill:#121331;}
	.st2{fill:none;}
	.st3{fill:#5c94d0;fill-opacity:0;}
</style>
<g>
	<path class="st0" d="M326.13,356.34c-1.63,0-3.27-0.17-4.91-0.52L68.16,302.04c-3.05-0.65-5.9-1.88-8.49-3.67v0
		c-1.65-1.14-2.72-3.04-2.72-5.19c0-3.48,2.82-6.3,6.3-6.3c1.39,0,2.68,0.45,3.72,1.22c1.17,0.79,2.45,1.33,3.81,1.62l253.07,53.79
		c2.81,0.6,5.69,0.06,8.1-1.5c2.41-1.56,4.06-3.97,4.65-6.77l26.96-126.84l-22.49-4.78c-3.4-0.72-5.58-4.07-4.85-7.47
		c0.72-3.4,4.07-5.58,7.47-4.85l22.49,4.78l4.03-18.96l-29.14-6.19c-3.4-0.72-5.58-4.07-4.85-7.47c0.72-3.4,4.06-5.58,7.47-4.85
		l29.14,6.19l1.09-5.1c1.23-5.79-2.49-11.51-8.29-12.75l-24.56-5.22c-3.4-0.72-5.58-4.07-4.85-7.47c0.72-3.4,4.07-5.58,7.47-4.85
		l24.56,5.22c12.59,2.68,20.66,15.1,17.99,27.69l-2.4,11.25c0,0,0,0.01,0,0.01c0,0.01,0,0.01,0,0.02l-6.64,31.25c0,0,0,0.01,0,0.01
		c0,0,0,0.01,0,0.01l-28.27,132.99c-1.29,6.09-4.88,11.32-10.11,14.72C334.97,355.06,330.6,356.34,326.13,356.34z M314.33,317.86
		c-0.44,0-0.88-0.05-1.31-0.14l-41.4-8.8c-3.39-0.72-5.57-4.05-4.86-7.45l1.93-9.25c0.71-3.41,4.05-5.59,7.45-4.88
		c3.41,0.71,5.59,4.05,4.88,7.45l-0.65,3.11l29.09,6.18l2.5-11.87c0.72-3.4,4.05-5.58,7.46-4.87c3.4,0.72,5.58,4.06,4.87,7.46
		l-3.8,18.05c-0.34,1.64-1.33,3.07-2.73,3.98C316.73,317.51,315.54,317.86,314.33,317.86z M192.18,262.7h-0.02
		c-3.48,0-6.3-2.82-6.3-6.3s2.82-6.3,6.3-6.3s6.31,2.82,6.31,6.3S195.66,262.7,192.18,262.7z"/>
	<path class="st2" d="M325.33,293.52H66.6c-9.42,0-17.05-7.63-17.05-17.05V97.01c0-9.42,7.63-17.05,17.05-17.05h258.73
		c9.42,0,17.05,7.63,17.05,17.05v179.46C342.38,285.88,334.74,293.52,325.33,293.52z M49.55,108.52h292.83 M49.55,140.49h292.83
		 M79.39,229.41l18.51-0.04 M121.29,229.38l74.52,0.04 M79.57,256.41l66.51-0.04 M195.99,256.41l-26.52-0.04"/>
	<path class="st1" d="M325.33,299.82H66.6c-12.88,0-23.35-10.47-23.35-23.35V97.01c0-12.88,10.47-23.35,23.35-23.35h258.73
		c12.88,0,23.35,10.47,23.35,23.35v179.46C348.68,289.34,338.2,299.82,325.33,299.82z M66.6,86.26c-5.93,0-10.75,4.82-10.75,10.75
		v179.46c0,5.93,4.82,10.75,10.75,10.75h258.73c5.93,0,10.75-4.82,10.75-10.75V97.01c0-5.93-4.82-10.75-10.75-10.75H66.6z
		 M79.57,262.71c-3.47,0-6.28-2.8-6.3-6.27c-0.01-3.48,2.79-6.31,6.27-6.33l27.51-0.12c0.01,0,0.02,0,0.03,0
		c3.47,0,6.28,2.8,6.3,6.27c0.01,3.48-2.79,6.31-6.27,6.33l-27.51,0.12C79.59,262.71,79.58,262.71,79.57,262.71z M156.99,262.64
		C156.99,262.64,156.99,262.64,156.99,262.64l-26.53-0.04c-3.48,0-6.29-2.83-6.29-6.31c0-3.48,2.82-6.29,6.3-6.29c0,0,0.01,0,0.01,0
		l26.52,0.04c3.48,0,6.3,2.83,6.29,6.31C163.29,259.82,160.47,262.64,156.99,262.64z M188.07,262.56c-3.47,0-6.28-2.8-6.3-6.27
		c-0.01-3.48,2.79-6.31,6.27-6.33l27.51-0.12c0.01,0,0.02,0,0.03,0c3.47,0,6.28,2.8,6.3,6.27c0.01,3.48-2.79,6.31-6.27,6.33
		l-27.51,0.12C188.09,262.56,188.08,262.56,188.07,262.56z M265.49,262.48C265.49,262.48,265.49,262.48,265.49,262.48l-26.53-0.04
		c-3.48,0-6.29-2.83-6.29-6.31c0-3.48,2.82-6.29,6.3-6.29c0,0,0.01,0,0.01,0l26.52,0.04c3.48,0,6.3,2.83,6.29,6.31
		C271.79,259.67,268.97,262.48,265.49,262.48z M214.49,232.67C214.49,232.67,214.49,232.67,214.49,232.67l-26.53-0.04
		c-3.48,0-6.29-2.83-6.29-6.31c0-3.48,2.82-6.29,6.3-6.29c0,0,0.01,0,0.01,0l26.52,0.04c3.48,0,6.3,2.83,6.29,6.31
		C220.79,229.86,217.97,232.67,214.49,232.67z M79.57,232.56c-3.47,0-6.28-2.8-6.3-6.27c-0.01-3.48,2.79-6.31,6.27-6.33l27.51-0.12
		c0.01,0,0.02,0,0.03,0c3.47,0,6.28,2.8,6.3,6.27c0.01,3.48-2.79,6.31-6.27,6.33l-27.51,0.12
		C79.59,232.56,79.58,232.56,79.57,232.56z M282.89,113.24c-0.51,0-1.04-0.06-1.56-0.2c-3.37-0.86-5.41-4.27-4.55-7.64l0.01-0.04
		c0.86-3.37,4.3-5.4,7.67-4.54c3.37,0.86,5.4,4.29,4.54,7.67C288.28,111.33,285.71,113.24,282.89,113.24z M306.39,113.11
		c-0.51,0-1.04-0.06-1.56-0.2c-3.37-0.86-5.41-4.27-4.55-7.64l0.01-0.04c0.86-3.37,4.29-5.4,7.67-4.54c3.37,0.86,5.4,4.29,4.54,7.67
		C311.78,111.2,309.21,113.11,306.39,113.11z M259.89,113.06c-0.51,0-1.04-0.06-1.56-0.2c-3.37-0.86-5.41-4.27-4.55-7.64l0.01-0.04
		c0.86-3.37,4.29-5.4,7.67-4.54c3.37,0.86,5.4,4.29,4.54,7.67C265.28,111.15,262.71,113.06,259.89,113.06z M237.39,112.99
		c-0.51,0-1.04-0.06-1.56-0.2c-3.37-0.86-5.41-4.27-4.55-7.64l0.01-0.04c0.86-3.37,4.3-5.4,7.67-4.54c3.37,0.86,5.4,4.29,4.54,7.67
		C242.78,111.08,240.21,112.99,237.39,112.99z"/>
	<path class="st0" d="M126.38,156.75H84.04c-3.47,0-6.29-2.81-6.3-6.28l-0.17-43.41c-0.01-1.67,0.65-3.28,1.83-4.47
		c1.18-1.19,2.78-1.86,4.46-1.86l42.42-0.09c0,0,0.01,0,0.01,0c1.67,0,3.26,0.66,4.45,1.84c1.18,1.18,1.85,2.78,1.85,4.45l0.08,43.5
		c0,1.67-0.66,3.28-1.84,4.46C129.65,156.09,128.05,156.75,126.38,156.75z M90.32,144.15h29.74L120,113.27l-29.8,0.07L90.32,144.15z
		"/>
</g>
</svg>
